<svg width="25" height="25" viewBox="0 0 25 25" fill="none" xmlns="http://www.w3.org/2000/svg">
<path d="M8.0054 12.0614C8.0054 9.85038 9.7968 8.05758 12.0072 8.05758C14.2176 8.05758 16.0099 9.85038 16.0099 12.0614C16.0099 14.2725 14.2176 16.0653 12.0072 16.0653C9.7968 16.0653 8.0054 14.2725 8.0054 12.0614ZM5.8416 12.0614C5.8416 15.4677 8.602 18.2288 12.0072 18.2288C15.4124 18.2288 18.1728 15.4677 18.1728 12.0614C18.1728 8.65518 15.4124 5.89408 12.0072 5.89408C8.602 5.89408 5.8416 8.65518 5.8416 12.0614ZM16.976 5.64958C16.9759 5.93458 17.0603 6.21328 17.2185 6.45038C17.3767 6.68748 17.6017 6.87228 17.8649 6.98148C18.1281 7.09068 18.4178 7.11938 18.6974 7.06388C18.9769 7.00838 19.2337 6.87118 19.4353 6.66968C19.6369 6.46818 19.7742 6.21148 19.8299 5.93188C19.8856 5.65228 19.8572 5.36248 19.7482 5.09908C19.6393 4.83568 19.4547 4.61058 19.2178 4.45208C18.9809 4.29358 18.7024 4.20898 18.4174 4.20888C18.0355 4.20908 17.6686 4.36088 17.3984 4.63098C17.1282 4.90108 16.9763 5.26748 16.976 5.64958ZM7.1563 21.8378C5.9856 21.7845 5.3494 21.5895 4.9265 21.4247C4.3659 21.2064 3.9659 20.9464 3.5454 20.5263C3.1248 20.1062 2.8645 19.7065 2.6473 19.1457C2.4824 18.7229 2.2874 18.0863 2.2342 16.9153C2.176 15.6493 2.1644 15.269 2.1644 12.0615C2.1644 8.85408 2.177 8.47488 2.2342 7.20778C2.2875 6.03678 2.484 5.40138 2.6473 4.97738C2.8655 4.41658 3.1254 4.01648 3.5454 3.59578C3.9654 3.17518 4.365 2.91478 4.9265 2.69748C5.3492 2.53258 5.9856 2.33748 7.1563 2.28428C8.4219 2.22608 8.8021 2.21438 12.0072 2.21438C15.2123 2.21438 15.5928 2.22698 16.8596 2.28428C18.0302 2.33758 18.6654 2.53408 19.0893 2.69748C19.6499 2.91478 20.0499 3.17578 20.4705 3.59578C20.891 4.01588 21.1503 4.41658 21.3686 4.97738C21.5334 5.40008 21.7284 6.03678 21.7816 7.20778C21.8399 8.47488 21.8515 8.85408 21.8515 12.0615C21.8515 15.269 21.8399 15.6482 21.7816 16.9153C21.7283 18.0863 21.5324 18.7228 21.3686 19.1457C21.1503 19.7065 20.8904 20.1066 20.4705 20.5263C20.0505 20.946 19.6499 21.2064 19.0893 21.4247C18.6667 21.5896 18.0302 21.7846 16.8596 21.8378C15.5939 21.8961 15.2137 21.9077 12.0072 21.9077C8.8007 21.9077 8.4216 21.8961 7.1563 21.8378ZM7.0569 0.123481C5.7786 0.181681 4.9052 0.384481 4.1424 0.681381C3.3524 0.987981 2.6837 1.39928 2.0154 2.06668C1.3471 2.73418 0.9369 3.40418 0.6304 4.19438C0.3336 4.95788 0.1309 5.83108 0.0726995 7.10968C0.0134995 8.39028 0 8.79968 0 12.0614C0 15.3232 0.0134995 15.7326 0.0726995 17.0132C0.1309 18.2919 0.3336 19.165 0.6304 19.9285C0.9369 20.7183 1.3472 21.389 2.0154 22.0561C2.6836 22.7233 3.3524 23.134 4.1424 23.4415C4.9066 23.7384 5.7786 23.9411 7.0569 23.9994C8.3378 24.0576 8.7464 24.0721 12.0072 24.0721C15.268 24.0721 15.6773 24.0586 16.9575 23.9994C18.2359 23.9411 19.1087 23.7384 19.872 23.4415C20.6615 23.134 21.3307 22.7236 21.999 22.0561C22.6673 21.3887 23.0766 20.7183 23.384 19.9285C23.6808 19.165 23.8844 18.2918 23.9417 17.0132C23.9999 15.7316 24.0134 15.3232 24.0134 12.0614C24.0134 8.79968 23.9999 8.39028 23.9417 7.10968C23.8835 5.83098 23.6808 4.95738 23.384 4.19438C23.0766 3.40458 22.6662 2.73518 21.999 2.06668C21.3318 1.39828 20.6615 0.987981 19.873 0.681381C19.1087 0.384481 18.2358 0.180781 16.9585 0.123481C15.6782 0.0652808 15.2689 0.0507812 12.0082 0.0507812C8.7474 0.0507812 8.3378 0.0642808 7.0569 0.123481Z" fill="white"/>
</svg>
