<svg width="220" height="58" viewBox="0 0 220 58" fill="none" xmlns="http://www.w3.org/2000/svg">
<path d="M0 27.55H12.7222C15.625 27.55 18.6326 27.373 21.1036 25.8504C23.035 24.6606 24.6606 23.0347 25.8508 21.1032C27.373 18.6326 27.55 15.625 27.55 12.7222V0H8.7C6.3926 0 4.18008 0.916516 2.54812 2.54812C0.91687 4.17972 0 6.3926 0 8.7V27.55Z" fill="white"/>
<path d="M58 29C58 45.0166 45.0166 58 29 58C13.4706 58 0.792969 45.7925 0.0346924 30.45H12.7222C15.625 30.45 18.6326 30.627 21.1029 32.1496C22.8736 33.2396 24.3895 34.6977 25.547 36.4249C26.7046 38.1521 27.4771 40.1079 27.8127 42.1601L27.9026 42.7155C27.9805 42.9446 28.1284 43.1432 28.3253 43.2841C28.4449 43.3694 28.5787 43.4306 28.7189 43.4657C28.8103 43.4887 28.9044 43.5004 29 43.5004C29.2421 43.5004 29.4779 43.4246 29.6747 43.2841C29.8716 43.1432 30.0195 42.9446 30.0974 42.7155L30.1873 42.1601C30.6773 39.1617 32.0961 36.393 34.2449 34.2449C36.393 32.0965 39.162 30.6773 42.1597 30.1877L42.7155 30.0978C42.9442 30.0195 43.1432 29.8716 43.2841 29.6747C43.425 29.4779 43.5 29.2418 43.5 29C43.5 28.7582 43.425 28.5221 43.2841 28.3253C43.2019 28.2102 43.1 28.1118 42.9832 28.0343C42.9003 27.9794 42.8104 27.9348 42.7155 27.9022L42.1597 27.8123C40.1079 27.4774 38.1517 26.705 36.4249 25.5474C34.6973 24.3898 33.2396 22.874 32.1492 21.1032C30.627 18.6326 30.45 15.625 30.45 12.7222V0H49.3C51.6074 0 53.8199 0.916516 55.4519 2.54812C57.0831 4.17972 58 6.3926 58 8.7V29Z" fill="white"/>
<path d="M114.131 11.0909V46H108.506L92.0568 22.2216H91.767V46H85.4432V11.0909H91.1023L107.534 34.8864H107.841V11.0909H114.131ZM132.135 56.3636C129.919 56.3636 128.016 56.0625 126.425 55.4602C124.834 54.8693 123.555 54.0739 122.589 53.0739C121.624 52.0739 120.953 50.9659 120.578 49.75L126.135 48.4034C126.385 48.9148 126.749 49.4205 127.226 49.9205C127.703 50.4318 128.345 50.8523 129.152 51.1818C129.97 51.5227 130.999 51.6932 132.237 51.6932C133.987 51.6932 135.436 51.267 136.584 50.4148C137.732 49.5739 138.305 48.1875 138.305 46.2557V41.2955H137.999C137.68 41.9318 137.214 42.5852 136.601 43.2557C135.999 43.9261 135.197 44.4886 134.197 44.9432C133.209 45.3977 131.964 45.625 130.464 45.625C128.453 45.625 126.629 45.1534 124.993 44.2102C123.368 43.2557 122.072 41.8352 121.107 39.9489C120.152 38.0511 119.675 35.6761 119.675 32.8239C119.675 29.9489 120.152 27.5227 121.107 25.5455C122.072 23.5568 123.374 22.0511 125.01 21.0284C126.646 19.9943 128.47 19.4773 130.482 19.4773C132.016 19.4773 133.277 19.7386 134.266 20.2614C135.266 20.7727 136.061 21.392 136.652 22.1193C137.243 22.8352 137.692 23.5114 137.999 24.1477H138.339V19.8182H144.425V46.4261C144.425 48.6648 143.891 50.517 142.822 51.983C141.754 53.4489 140.294 54.5455 138.442 55.2727C136.589 56 134.487 56.3636 132.135 56.3636ZM132.186 40.7841C133.493 40.7841 134.607 40.4659 135.527 39.8295C136.447 39.1932 137.146 38.2784 137.624 37.0852C138.101 35.892 138.339 34.4602 138.339 32.7898C138.339 31.142 138.101 29.6989 137.624 28.4602C137.158 27.2216 136.464 26.2614 135.544 25.5795C134.635 24.8864 133.516 24.5398 132.186 24.5398C130.811 24.5398 129.663 24.8977 128.743 25.6136C127.822 26.3295 127.129 27.3125 126.663 28.5625C126.197 29.8011 125.964 31.2102 125.964 32.7898C125.964 34.392 126.197 35.7955 126.663 37C127.141 38.1932 127.839 39.125 128.76 39.7955C129.692 40.4545 130.834 40.7841 132.186 40.7841ZM162.169 46.5114C159.612 46.5114 157.396 45.9489 155.521 44.8239C153.646 43.6989 152.192 42.125 151.158 40.1023C150.135 38.0795 149.624 35.7159 149.624 33.0114C149.624 30.3068 150.135 27.9375 151.158 25.9034C152.192 23.8693 153.646 22.2898 155.521 21.1648C157.396 20.0398 159.612 19.4773 162.169 19.4773C164.726 19.4773 166.942 20.0398 168.817 21.1648C170.692 22.2898 172.141 23.8693 173.163 25.9034C174.197 27.9375 174.714 30.3068 174.714 33.0114C174.714 35.7159 174.197 38.0795 173.163 40.1023C172.141 42.125 170.692 43.6989 168.817 44.8239C166.942 45.9489 164.726 46.5114 162.169 46.5114ZM162.203 41.5682C163.589 41.5682 164.749 41.1875 165.68 40.4261C166.612 39.6534 167.305 38.6193 167.76 37.3239C168.226 36.0284 168.459 34.5852 168.459 32.9943C168.459 31.392 168.226 29.9432 167.76 28.6477C167.305 27.3409 166.612 26.3011 165.68 25.5284C164.749 24.7557 163.589 24.3693 162.203 24.3693C160.783 24.3693 159.601 24.7557 158.658 25.5284C157.726 26.3011 157.027 27.3409 156.561 28.6477C156.107 29.9432 155.879 31.392 155.879 32.9943C155.879 34.5852 156.107 36.0284 156.561 37.3239C157.027 38.6193 157.726 39.6534 158.658 40.4261C159.601 41.1875 160.783 41.5682 162.203 41.5682ZM179.952 55.8182V19.8182H186.02V24.1477H186.378C186.696 23.5114 187.145 22.8352 187.724 22.1193C188.304 21.392 189.088 20.7727 190.077 20.2614C191.065 19.7386 192.327 19.4773 193.861 19.4773C195.884 19.4773 197.707 19.9943 199.332 21.0284C200.969 22.0511 202.264 23.5682 203.219 25.5795C204.185 27.5795 204.668 30.0341 204.668 32.9432C204.668 35.8182 204.196 38.2614 203.253 40.2727C202.31 42.2841 201.026 43.8182 199.401 44.875C197.776 45.9318 195.935 46.4602 193.878 46.4602C192.378 46.4602 191.134 46.2102 190.145 45.7102C189.156 45.2102 188.361 44.608 187.759 43.9034C187.168 43.1875 186.707 42.5114 186.378 41.875H186.122V55.8182H179.952ZM186.003 32.9091C186.003 34.6023 186.241 36.0852 186.719 37.358C187.207 38.6307 187.906 39.625 188.815 40.3409C189.736 41.0455 190.849 41.3977 192.156 41.3977C193.52 41.3977 194.662 41.0341 195.582 40.3068C196.503 39.5682 197.196 38.5625 197.662 37.2898C198.139 36.0057 198.378 34.5455 198.378 32.9091C198.378 31.2841 198.145 29.8409 197.679 28.5795C197.213 27.3182 196.52 26.3295 195.599 25.6136C194.679 24.8977 193.531 24.5398 192.156 24.5398C190.838 24.5398 189.719 24.8864 188.798 25.5795C187.878 26.2727 187.179 27.2443 186.702 28.4943C186.236 29.7443 186.003 31.2159 186.003 32.9091ZM209.952 46V19.8182H216.122V46H209.952ZM213.054 16.1023C212.077 16.1023 211.236 15.7784 210.531 15.1307C209.827 14.4716 209.474 13.6818 209.474 12.7614C209.474 11.8295 209.827 11.0398 210.531 10.392C211.236 9.73295 212.077 9.40341 213.054 9.40341C214.043 9.40341 214.884 9.73295 215.577 10.392C216.281 11.0398 216.634 11.8295 216.634 12.7614C216.634 13.6818 216.281 14.4716 215.577 15.1307C214.884 15.7784 214.043 16.1023 213.054 16.1023Z" fill="white"/>
</svg>
