<svg width="26" height="22" viewBox="0 0 26 22" fill="none" xmlns="http://www.w3.org/2000/svg">
<path d="M24.9136 3.4008C24.1211 3.7422 23.2879 3.9799 22.4346 4.1081C22.8335 4.0396 23.4205 3.3209 23.6542 3.03C24.0091 2.5912 24.2797 2.0903 24.452 1.5527C24.452 1.5128 24.4919 1.4557 24.452 1.4272C24.4319 1.4162 24.4094 1.4105 24.3865 1.4105C24.3636 1.4105 24.341 1.4162 24.3209 1.4272C23.3944 1.9294 22.4083 2.3127 21.386 2.568C21.3504 2.5789 21.3124 2.5799 21.2763 2.5708C21.2401 2.5618 21.2071 2.5431 21.1808 2.5167C21.1013 2.4218 21.0156 2.3323 20.9244 2.2486C20.5074 1.8746 20.0343 1.5686 19.5224 1.3416C18.8315 1.0579 18.0851 0.934996 17.3397 0.982296C16.6165 1.028 15.9104 1.2222 15.2653 1.5527C14.6301 1.9012 14.0718 2.3746 13.624 2.9445C13.153 3.531 12.8129 4.2118 12.6267 4.9409C12.4732 5.6344 12.4557 6.3512 12.5754 7.0513C12.5754 7.1711 12.5754 7.1882 12.4728 7.1711C8.40946 6.5722 5.07556 5.1291 2.35146 2.0318C2.23176 1.8949 2.16916 1.8949 2.07226 2.0318C0.886856 3.8343 1.46246 6.6863 2.94416 8.0952C3.14366 8.2834 3.34876 8.4659 3.56536 8.6371C2.88596 8.5888 2.22326 8.4045 1.61636 8.0952C1.50236 8.021 1.43966 8.061 1.43396 8.1979C1.41776 8.3876 1.41776 8.5785 1.43396 8.7683C1.55286 9.6778 1.91096 10.5394 2.47176 11.265C3.03246 11.9906 3.77566 12.5541 4.62536 12.898C4.83246 12.9868 5.04836 13.0537 5.26936 13.0976C4.64046 13.2215 3.99536 13.2408 3.36016 13.1546C3.22346 13.1261 3.17216 13.2003 3.22346 13.3315C4.06116 15.6131 5.87916 16.3089 7.21266 16.6968C7.39506 16.7253 7.57746 16.7253 7.78256 16.771C7.78256 16.771 7.78256 16.771 7.74836 16.8052C7.35516 17.5239 5.76516 18.0087 5.03566 18.2597C3.70426 18.7384 2.28466 18.9214 0.875456 18.7959C0.653156 18.7617 0.601956 18.7674 0.544956 18.7959C0.487956 18.8244 0.544955 18.8872 0.607555 18.9442C0.892555 19.1324 1.17746 19.2979 1.47386 19.4576C2.35606 19.9392 3.28876 20.3218 4.25496 20.5984C9.25856 21.9787 14.8892 20.9634 18.6448 17.2273C21.5969 14.2954 22.6341 10.2513 22.6341 6.2014C22.6341 6.0474 22.8221 5.9562 22.9304 5.8763C23.6773 5.2939 24.3357 4.606 24.8851 3.8343C24.9803 3.7192 25.0291 3.5728 25.0219 3.4236C25.0219 3.338 25.0219 3.3551 24.9136 3.4008Z" fill="white"/>
</svg>
