<svg width="17" height="17" viewBox="0 0 17 17" fill="none" xmlns="http://www.w3.org/2000/svg">
<g clip-path="url(#clip0_3221_439)">
<path d="M15.3351 14.6094C15.2885 14.6901 15.2214 14.7572 15.1406 14.8038C15.0599 14.8505 14.9682 14.875 14.8749 14.875H2.12494C2.03174 14.8749 1.94019 14.8503 1.85951 14.8036C1.77883 14.7569 1.71184 14.6899 1.66528 14.6091C1.61871 14.5284 1.59421 14.4368 1.59424 14.3436C1.59426 14.2504 1.61881 14.1588 1.66541 14.0781C2.67678 12.3296 4.23533 11.0759 6.0542 10.4815C5.15451 9.94594 4.4555 9.12982 4.06453 8.15851C3.67356 7.1872 3.61223 6.1144 3.88998 5.10486C4.16773 4.09532 4.76919 3.20487 5.60199 2.57025C6.4348 1.93562 7.4529 1.59192 8.49994 1.59192C9.54699 1.59192 10.5651 1.93562 11.3979 2.57025C12.2307 3.20487 12.8322 4.09532 13.1099 5.10486C13.3877 6.1144 13.3263 7.1872 12.9354 8.15851C12.5444 9.12982 11.8454 9.94594 10.9457 10.4815C12.7646 11.0759 14.3231 12.3296 15.3345 14.0781C15.3812 14.1588 15.4059 14.2504 15.406 14.3436C15.4061 14.4369 15.3817 14.5285 15.3351 14.6094Z" fill="#282A3A"/>
</g>
<defs>
<clipPath id="clip0_3221_439">
<rect width="17" height="17" fill="white"/>
</clipPath>
</defs>
</svg>
